<svg width="22" height="23" viewBox="0 0 22 23" fill="none" xmlns="http://www.w3.org/2000/svg">
<g clip-path="url(#clip0_1_886)">
<path fill-rule="evenodd" clip-rule="evenodd" d="M1.07601 3.74487C0.562012 4.75287 0.562012 6.07287 0.562012 8.71287V15.6279C0.562012 18.2679 0.562012 19.5879 1.07601 20.5959C1.52801 21.4828 2.24911 22.2039 3.13601 22.6559C4.14501 23.1709 5.46601 23.1709 8.10601 23.1709H15.02C17.66 23.1709 18.98 23.1709 19.988 22.6569C20.8749 22.2049 21.596 21.4838 22.048 20.5969C22.563 19.5879 22.563 18.2669 22.563 15.6269V8.71387C22.563 6.07387 22.563 4.75387 22.049 3.74587C21.597 2.85897 20.8759 2.13787 19.989 1.68587C18.98 1.17187 17.659 1.17188 15.019 1.17188H8.10601C5.46601 1.17188 4.14601 1.17188 3.13801 1.68488C2.25106 2.13681 1.52995 2.85793 1.07801 3.74487H1.07601ZM13.941 5.88487C15.448 5.96887 16.875 6.47087 18.064 7.47687C19.413 10.1589 20.126 13.1769 20.205 16.2769C19.016 17.6179 17.351 18.4569 15.606 18.4569C15.606 18.4569 15.051 17.7859 14.655 17.1989C15.685 16.9479 16.637 16.3609 17.272 15.4389C16.717 15.7739 16.162 16.1089 15.606 16.3609C14.893 16.6959 14.179 16.8639 13.466 17.0309C12.831 17.1149 12.196 17.1989 11.563 17.1989C10.928 17.1989 10.293 17.1149 9.66001 17.0309C8.94601 16.8639 8.23201 16.6959 7.51901 16.3609C6.96401 16.1089 6.40901 15.7739 5.85301 15.4389C6.48801 16.3609 7.43901 16.9479 8.47001 17.1989C8.17018 17.6306 7.85291 18.0499 7.51901 18.4559C5.77401 18.4559 4.10901 17.6179 2.91901 16.2769C2.99901 13.1769 3.71301 10.1589 5.06101 7.47687C6.25001 6.47087 7.67701 5.96887 9.18401 5.88487L9.42201 6.13587C8.07401 6.47087 6.88401 7.14187 5.77401 8.06387C7.1423 7.29323 8.65281 6.80844 10.214 6.63888C10.69 6.55487 11.087 6.55487 11.562 6.55487C12.038 6.55487 12.435 6.55487 12.911 6.63888C14.4722 6.80844 15.9827 7.29323 17.351 8.06387C16.241 7.14187 15.051 6.47087 13.703 6.13587L13.941 5.88487ZM7.44001 13.0919C7.44001 14.0139 8.15401 14.7689 8.94701 14.7689C9.74001 14.7689 10.453 14.0139 10.453 13.0919C10.453 12.1709 9.74001 11.4159 8.94701 11.4159C8.15401 11.4159 7.44001 12.1709 7.44001 13.0919ZM12.674 13.0919C12.674 14.0139 13.387 14.7689 14.18 14.7689C14.973 14.7689 15.687 14.0139 15.687 13.0919C15.687 12.1709 14.973 11.4159 14.18 11.4159C13.387 11.4159 12.674 12.1709 12.674 13.0919Z" fill="#303030"/>
</g>
<defs>
<clipPath id="clip0_1_886">
<rect width="22" height="22" fill="white" transform="translate(0 0.607422)"/>
</clipPath>
</defs>
</svg>
