<svg width="15" height="16" viewBox="0 0 15 16" fill="none" xmlns="http://www.w3.org/2000/svg">
<path fill-rule="evenodd" clip-rule="evenodd" d="M11.8536 1.48336C11.6583 1.2881 11.3417 1.2881 11.1465 1.48336L3.71455 8.91527C3.62459 9.00523 3.55263 9.11152 3.50251 9.22846L2.04044 12.6399C1.9599 12.8279 2.00189 13.0459 2.14646 13.1905C2.29103 13.335 2.50905 13.377 2.69697 13.2965L6.10847 11.8344C6.2254 11.7843 6.3317 11.7123 6.42166 11.6224L13.8536 4.19046C14.0488 3.9952 14.0488 3.67862 13.8536 3.48336L11.8536 1.48336ZM4.42166 9.62238L11.5 2.54402L12.7929 3.83691L5.71455 10.9153L4.21924 11.5561L3.78081 11.1177L4.42166 9.62238Z" fill="#CCCCCC"/>
</svg>
