
<svg width="120" height="46" viewBox="0 0 120 46" fill="none" xmlns="http://www.w3.org/2000/svg">
<path d="M18.039 18.975C18.138 18.975 18.189 19.0305 18.189 19.143C18.189 19.1835 18.171 19.2195 18.138 19.2525C17.5815 19.809 16.938 20.088 16.209 20.088C16.0365 20.088 15.8445 19.992 15.6315 19.8C15.42 19.6005 15.3135 19.3155 15.3135 18.945C15.3135 18.573 15.5385 18.162 15.99 17.712C16.44 17.2545 17.067 16.8225 17.8695 16.419C18.6795 16.008 19.6845 15.6435 20.892 15.324C22.098 15.006 23.1825 14.847 24.144 14.847C25.104 14.847 25.8945 14.9265 26.511 15.087C27.126 15.2385 27.6075 15.432 27.951 15.663C28.3035 15.888 28.5915 16.143 28.818 16.428C29.196 16.9065 29.3835 17.3925 29.3835 17.8905C29.3835 18.381 29.2245 18.888 28.9065 19.4115C28.5885 19.9365 28.1745 20.4015 27.6645 20.814C27.1206 21.2447 26.5381 21.6243 25.9245 21.948C24.6975 22.5975 23.385 23.073 21.9855 23.379C22.2255 23.625 22.728 24.2415 23.4975 25.2285C24.273 26.2095 24.9795 27.0315 25.6155 27.6945C26.259 28.3575 26.7555 28.689 27.1065 28.689L27.4365 28.569C27.5085 28.569 27.5445 28.599 27.5445 28.659C27.5445 28.713 27.4215 28.875 27.177 29.1465C26.9856 29.366 26.7759 29.5687 26.55 29.7525C26.37 29.892 26.1255 29.9625 25.815 29.9625C25.509 29.9625 25.161 29.8125 24.7695 29.514C24.2994 29.1386 23.8696 28.7153 23.487 28.251C23.0235 27.708 22.6065 27.198 22.2345 26.721C21.864 26.2365 21.4395 25.671 20.9625 25.02C20.6392 24.5722 20.3107 24.1282 19.977 23.688C19.6139 24.2646 19.2459 24.8381 18.873 25.4085C18.5003 26.0018 18.1328 26.5983 17.7705 27.198C17.406 27.813 17.1495 28.275 17.0055 28.5795C16.9517 28.7191 16.8554 28.8383 16.7303 28.9204C16.6052 29.0025 16.4575 29.0432 16.308 29.037L15.96 29.028L15.6615 29.037C15.2505 29.037 15.0465 28.8645 15.0465 28.5195C15.0465 28.2615 15.1545 27.894 15.3735 27.417C15.5985 26.9325 16.779 25.14 18.9135 22.0365C21.048 18.927 22.224 17.271 22.443 17.0655C22.662 16.8525 22.824 16.734 22.9305 16.707C23.01 16.647 23.0625 16.617 23.0895 16.617L23.2695 16.647L23.4375 16.617C23.4975 16.617 23.55 16.644 23.5965 16.6965C23.6274 16.7292 23.6611 16.7593 23.697 16.7865C23.9745 16.992 24.114 17.1645 24.114 17.304C24.113 17.4471 24.0753 17.5876 24.0045 17.712C23.9385 17.838 23.7495 18.126 23.4375 18.576C23.127 19.026 22.7145 19.614 22.2045 20.337C21.7005 21.0525 21.336 21.573 21.111 21.897C21.654 21.8715 22.308 21.705 23.07 21.4005C23.8155 21.1037 24.5311 20.7371 25.2075 20.3055C25.8313 19.9123 26.4054 19.4455 26.9175 18.915C27.396 18.411 27.6345 17.973 27.6345 17.6025C27.6345 17.403 27.531 17.2245 27.3255 17.0655C27.0948 16.8866 26.8314 16.7546 26.55 16.677C25.8647 16.4827 25.1548 16.3887 24.4425 16.398C23.6595 16.398 22.6695 16.5675 21.4695 16.9065C20.2695 17.244 19.3935 17.5695 18.8445 17.8815C18.294 18.186 17.8965 18.447 17.6505 18.666C17.406 18.8775 17.283 19.026 17.283 19.113C17.283 19.1595 17.349 19.1835 17.481 19.1835C17.6111 19.186 17.7392 19.1511 17.85 19.083C17.9069 19.0372 17.9707 19.0007 18.039 18.975Z" fill="#909090"/>
<path d="M34.0575 21.7485C34.0575 22.1865 33.8775 22.5705 33.5205 22.902C33.1695 23.232 32.7675 23.3985 32.3175 23.3985C32.172 23.3985 32.076 23.3655 32.0295 23.2995C31.98 23.2156 31.9555 23.1193 31.959 23.022C31.959 22.908 31.974 22.7985 31.9995 22.692C31.7595 22.773 31.4955 22.896 31.2045 23.061C30.912 23.226 30.5535 23.472 30.1305 23.796C29.706 24.1215 29.493 24.363 29.493 24.5235C29.493 24.576 29.5695 24.603 29.7225 24.603C29.8815 24.603 30.123 24.549 30.4485 24.4425C30.7725 24.33 30.999 24.2745 31.1235 24.2745C31.257 24.2745 31.3425 24.2805 31.383 24.294C31.4685 24.3405 31.563 24.444 31.662 24.603C31.761 24.7545 31.8105 24.8775 31.8105 24.9705C31.8105 25.056 31.7235 25.173 31.5525 25.3185C31.3782 25.4652 31.1791 25.5795 30.9645 25.656C30.8151 25.7018 30.6692 25.7585 30.528 25.8255C29.1285 26.607 28.4295 27.1455 28.4295 27.4365C28.4295 27.954 28.8705 28.212 29.7525 28.212C30.315 28.212 30.882 28.032 31.452 27.675C31.9044 27.3926 32.3397 27.0836 32.7555 26.7495C33.1455 26.4315 33.3915 26.2365 33.4905 26.1645C33.597 26.0895 33.6765 26.0535 33.7305 26.0535C33.9015 26.0535 33.9885 26.247 33.9885 26.631C33.9885 27.015 33.9645 27.27 33.918 27.396C33.873 27.516 33.7395 27.666 33.5205 27.8445C32.1015 28.998 30.7605 29.574 29.493 29.574C28.818 29.574 28.278 29.481 27.873 29.295C27.1305 28.9575 26.7585 28.44 26.7585 27.744C26.7585 26.829 27.3915 26.1375 28.659 25.6665C28.407 25.554 28.2435 25.4115 28.1715 25.239C28.098 25.059 28.062 24.7785 28.062 24.393C28.062 24.003 28.242 23.592 28.599 23.16C28.9635 22.7235 29.4075 22.365 29.931 22.086C31.098 21.456 32.139 21.141 33.054 21.141C33.2715 21.141 33.4935 21.195 33.72 21.3015C33.945 21.4065 34.0575 21.5565 34.0575 21.7485Z" fill="#909090"/>
<path d="M41.2665 21.63C41.7705 21.63 42.0225 21.801 42.0225 22.146C42.0225 22.332 41.979 22.4685 41.8935 22.554C41.8065 22.6395 41.622 22.929 41.337 23.4195C41.058 23.9025 40.746 24.5265 40.4025 25.2885C40.0635 26.0445 39.8445 26.691 39.7455 27.228C39.7227 27.3187 39.7126 27.4121 39.7155 27.5055C39.7155 27.87 39.8145 28.053 40.014 28.053C40.2135 28.053 40.449 27.96 40.719 27.774C40.992 27.582 41.2335 27.3795 41.4465 27.168C41.658 26.949 41.8635 26.727 42.0615 26.502C42.267 26.277 42.3915 26.1465 42.4305 26.1135C42.4695 26.0805 42.5295 26.064 42.6105 26.064C42.735 26.064 42.8115 26.16 42.8385 26.352C42.864 26.544 42.8775 26.7435 42.8775 26.949C42.887 27.0941 42.8666 27.2396 42.8175 27.3765C42.6255 27.7545 42.2025 28.209 41.5455 28.7385C40.896 29.2695 40.302 29.5335 39.765 29.5335C39.2355 29.5335 38.844 29.3715 38.592 29.0475C38.3472 28.7431 38.2138 28.3641 38.214 27.9735C38.2064 27.6154 38.2744 27.2596 38.4135 26.9295C37.8781 27.6309 37.237 28.2447 36.513 28.749C35.805 29.2455 35.223 29.4945 34.773 29.4945C34.323 29.4945 33.9555 29.3595 33.6705 29.0865C33.3045 28.749 33.123 28.281 33.123 27.6855C33.123 27.081 33.255 26.478 33.5205 25.875C33.7891 25.2706 34.1482 24.7107 34.5855 24.2145C35.022 23.7105 35.5035 23.2545 36.0255 22.842C37.1265 21.981 38.1405 21.549 39.0705 21.549C39.4275 21.549 39.7185 21.609 39.9435 21.729C40.1685 21.849 40.3125 21.9975 40.3725 22.176C40.5315 21.9375 40.6635 21.7875 40.77 21.729C40.9241 21.6533 41.0951 21.6187 41.2665 21.6285V21.63ZM39.945 22.7325C38.811 22.7325 37.638 23.3625 36.4245 24.6225C35.994 25.0725 35.595 25.6125 35.2305 26.2425C34.8735 26.8725 34.6935 27.303 34.6935 27.5355C34.6935 27.768 34.761 27.8835 34.893 27.8835C35.079 27.8835 35.595 27.519 36.444 26.79C37.293 26.055 37.8555 25.515 38.1345 25.17C38.439 24.7845 39.0435 23.973 39.945 22.7325Z" fill="#909090"/>
<path d="M48.435 26.979C48.78 26.76 49.0035 26.6115 49.1025 26.532L49.4505 26.232C49.5825 26.121 49.692 26.064 49.779 26.064C49.911 26.064 49.977 26.217 49.977 26.5215C49.977 26.82 49.827 27.144 49.53 27.4965C49.2375 27.8415 48.873 28.1355 48.435 28.3815C48 28.62 47.532 28.8285 47.034 29.007C46.047 29.3715 45.204 29.5545 44.508 29.5545C43.818 29.5545 43.1955 29.3295 42.639 28.8795C42.3707 28.6679 42.1555 28.3967 42.0104 28.0873C41.8654 27.778 41.7945 27.439 41.8035 27.0975C41.8035 26.3625 41.9865 25.6305 42.351 24.9C43.0656 23.4422 44.269 22.2813 45.7515 21.6195C46.4582 21.2872 47.2281 21.1107 48.009 21.102C48.366 21.102 48.6885 21.2055 48.9735 21.411C49.2585 21.6165 49.401 21.897 49.401 22.2555C49.401 22.614 49.221 23.0445 48.864 23.5485C48.513 24.045 48.1545 24.294 47.79 24.294C47.3655 24.294 47.154 24.0915 47.154 23.688C47.154 23.5815 47.253 23.3925 47.451 23.121C47.6505 22.8495 47.751 22.6665 47.751 22.5735C47.751 22.4745 47.7135 22.4235 47.6415 22.4235C47.2755 22.4235 46.8855 22.551 46.467 22.803C46.0683 23.0417 45.6864 23.3073 45.324 23.598C44.9784 23.8836 44.6559 24.1961 44.3595 24.5325C43.6965 25.2825 43.365 26.061 43.365 26.8695C43.365 27.1935 43.4685 27.4755 43.674 27.7155C43.884 27.9465 44.2365 28.0635 44.727 28.0635C45.225 28.0635 45.7215 28.0065 46.218 27.894C46.716 27.774 47.124 27.648 47.442 27.516C47.766 27.3765 48.096 27.198 48.435 26.979Z" fill="#909090"/>
<path d="M56.2515 16.38L56.6595 16.479C56.7195 16.479 56.772 16.509 56.8185 16.569C56.865 16.6275 56.889 16.6845 56.889 16.737C56.889 16.7895 56.8185 16.932 56.679 17.1645C56.5177 17.4321 56.3522 17.6971 56.1825 17.9595C55.9965 18.252 55.8975 18.4095 55.884 18.4365C56.4015 18.3975 56.766 18.3765 56.979 18.3765C57.1965 18.3765 57.3465 18.3945 57.4245 18.4275C57.504 18.4545 57.594 18.537 57.6945 18.6765C57.7995 18.8085 57.8955 18.9105 57.9825 18.984C58.068 19.05 58.1115 19.1535 58.1115 19.293C58.1115 19.431 58.026 19.551 57.8535 19.65C57.6881 19.7428 57.5052 19.8005 57.3165 19.8195C56.4689 19.9093 55.6204 19.9893 54.771 20.0595C54.234 20.88 53.481 22.1625 52.5135 23.907C51.552 25.6425 51.042 26.73 50.982 27.168C50.955 27.366 50.9415 27.528 50.9415 27.6555C50.9415 27.9135 51.0765 28.0425 51.3495 28.0425C51.621 28.0425 51.9225 27.9405 52.254 27.735C52.5761 27.5297 52.8819 27.3 53.169 27.048C53.9115 26.385 54.309 26.0535 54.363 26.0535C54.5355 26.0535 54.621 26.3535 54.621 26.949C54.621 27.2745 54.471 27.5655 54.174 27.8235C53.5035 28.401 52.941 28.8345 52.4835 29.127C52.026 29.418 51.5685 29.5635 51.111 29.5635C51.0172 29.5641 50.9236 29.554 50.832 29.5335C50.3025 29.4345 49.911 29.2425 49.659 28.9575C49.4145 28.6665 49.2915 28.275 49.2915 27.7845C49.2975 27.294 49.4445 26.7 49.7295 26.004C50.0205 25.302 50.385 24.5565 50.823 23.7675C51.5039 22.5405 52.2202 21.3335 52.971 20.148L52.593 20.1975C52.1469 20.2543 51.6992 20.2973 51.2505 20.3265H51.1605C50.9696 20.3266 50.7806 20.2894 50.604 20.217C50.424 20.1375 50.3355 20.0415 50.3355 19.929C50.3395 19.806 50.3893 19.6889 50.475 19.6005C50.5504 19.5298 50.6115 19.4453 50.655 19.3515C50.7 19.206 50.8725 19.044 51.171 18.8655C51.4755 18.6855 51.705 18.5925 51.8565 18.5865C52.0023 18.5737 52.1483 18.5637 52.2945 18.5565L52.7715 18.537C52.9515 18.5295 53.0865 18.5235 53.1795 18.516L54.0735 18.477C54.6315 17.6415 55.0125 17.1045 55.218 16.866C55.4295 16.6275 55.5525 16.4985 55.5855 16.479C55.6185 16.452 55.6845 16.4385 55.785 16.4385L56.2515 16.3785V16.38ZM73.236 25.5165L73.3155 25.8945C73.3155 26.0535 73.233 26.2425 73.0665 26.4615C72.6285 27.0315 71.9265 27.6885 70.959 28.431C69.9975 29.166 69.288 29.535 68.8305 29.535C68.373 29.535 68.0145 29.4015 67.7565 29.136C67.6344 29.015 67.5373 28.8711 67.4709 28.7126C67.4045 28.554 67.37 28.3839 67.3695 28.212C67.3695 27.801 67.8 26.892 68.661 25.4865C69.954 23.3985 71.6055 20.9595 73.614 18.1695C72.4833 19.3459 71.3563 20.526 70.233 21.7095C66.183 25.9515 63.816 28.3545 63.1335 28.9185C63.021 29.01 62.8545 29.0565 62.6355 29.0565C62.424 29.0565 62.199 28.971 61.9605 28.7985C61.7205 28.6185 61.6005 28.4205 61.6005 28.2015V28.152C61.6275 27.873 62.268 26.511 63.5205 24.066C64.773 21.6195 65.8245 19.674 66.6735 18.228C65.4195 19.608 64.1535 21.1455 62.874 22.842C60.441 26.064 58.662 28.809 57.534 31.077C57.435 31.287 57.312 31.3935 57.1665 31.3935C56.9509 31.3822 56.7375 31.3454 56.5305 31.284C55.947 31.125 55.6545 30.8475 55.6545 30.4485C55.6545 30.21 56.142 29.3595 57.117 27.894C58.092 26.4225 59.2215 24.819 60.507 23.0805C61.7784 21.3558 63.1117 19.6777 64.5045 18.0495C66.408 15.822 67.6305 14.709 68.175 14.709C68.2605 14.709 68.343 14.7315 68.4225 14.778C68.502 14.8185 68.553 14.838 68.5725 14.838C68.592 14.838 68.6115 14.8275 68.6325 14.808C68.718 14.703 68.8875 14.649 69.1395 14.649C69.3975 14.649 69.6465 14.6985 69.885 14.799C70.1295 14.898 70.2525 15.009 70.2525 15.1365C70.2525 15.216 69.9225 15.849 69.258 17.0355C67.038 20.973 65.5455 23.6775 64.7835 25.1505C65.793 23.9529 66.8344 22.7824 67.9065 21.6405C69.2958 20.1505 70.7212 18.6945 72.1815 17.274C74.124 15.3915 75.2835 14.4495 75.6615 14.4495C75.8145 14.4495 76.0065 14.4825 76.239 14.55C76.65 14.67 77.0445 14.7285 77.4225 14.7285C77.5275 14.748 77.6175 14.7945 77.691 14.868C77.7705 14.934 77.811 15.003 77.811 15.0765C77.8139 15.1419 77.7925 15.206 77.751 15.2565C75.8719 17.7359 74.0549 20.2617 72.3015 22.8315C70.8225 25.02 69.9105 26.499 69.567 27.267C70.263 27.1215 71.2995 26.289 72.6795 24.771C72.7395 24.6915 72.7815 24.639 72.8085 24.612C72.8334 24.5872 72.8564 24.5606 72.8775 24.5325C72.99 24.4005 73.077 24.483 73.1355 24.7815C73.1625 24.954 73.1805 25.077 73.1865 25.149C73.2 25.215 73.209 25.2885 73.2165 25.368C73.2268 25.4175 73.2333 25.4661 73.236 25.5165ZM80.226 18.2685C80.226 18.6465 80.0505 19.0275 79.6995 19.4115C79.347 19.7895 78.9795 19.9785 78.5955 19.9785C78.2175 19.9785 78.0285 19.779 78.0285 19.3815C78.0285 18.984 78.1935 18.606 78.525 18.249C78.864 17.883 79.2345 17.7015 79.6395 17.7015C79.7961 17.6937 79.9496 17.7476 80.067 17.8515C80.172 17.9505 80.226 18.09 80.226 18.2685ZM78.615 26.949C78.6234 27.0941 78.603 27.2394 78.555 27.3765C78.231 28.0395 77.715 28.5765 77.004 28.9875C76.2945 29.3925 75.678 29.5935 75.1545 29.5935C74.631 29.5935 74.1795 29.418 73.803 29.067C73.425 28.716 73.236 28.3575 73.236 27.993C73.236 27.6285 73.4175 27.099 73.782 26.403C74.1465 25.7055 74.511 25.0635 74.877 24.4725C75.2415 23.883 75.423 23.565 75.423 23.5185C75.423 23.466 75.354 23.3655 75.2145 23.22C75.0825 23.0745 75.015 22.968 75.015 22.902C75.015 22.8285 75.1515 22.647 75.423 22.3545C75.702 22.056 76.0365 21.765 76.428 21.48C76.8255 21.189 77.127 21.042 77.3325 21.042C77.544 21.042 77.733 21.135 77.8995 21.321C78.0645 21.507 78.1485 21.675 78.1485 21.828C78.1485 21.981 77.3595 23.4165 75.7815 26.133C75.7292 26.2256 75.6726 26.3157 75.612 26.403C75.5389 26.5136 75.4689 26.6261 75.402 26.7405L75.234 27.0585C75.102 27.324 75.036 27.546 75.036 27.7245C75.036 27.9495 75.1875 28.0635 75.4935 28.0635C75.798 28.0635 76.113 27.96 76.4385 27.7545C76.7685 27.543 77.0535 27.3105 77.2935 27.0585C77.916 26.3895 78.27 26.0535 78.357 26.0535C78.5295 26.0535 78.615 26.3535 78.615 26.949Z" fill="#909090"/>
<path d="M85.476 21.63C85.98 21.63 86.232 21.801 86.232 22.146C86.232 22.332 86.1885 22.4685 86.103 22.554C86.016 22.6395 85.8315 22.929 85.5465 23.4195C85.2675 23.9025 84.9555 24.5265 84.612 25.2885C84.273 26.0445 84.054 26.691 83.955 27.228C83.9323 27.3187 83.9222 27.4121 83.925 27.5055C83.925 27.87 84.024 28.053 84.2235 28.053C84.423 28.053 84.6585 27.96 84.9285 27.774C85.2015 27.582 85.443 27.3795 85.6545 27.168C85.8675 26.949 86.073 26.727 86.271 26.502C86.4765 26.277 86.601 26.1465 86.64 26.1135C86.679 26.0805 86.739 26.064 86.82 26.064C86.9445 26.064 87.021 26.16 87.048 26.352C87.0735 26.544 87.087 26.7435 87.087 26.949C87.0966 27.0941 87.0762 27.2397 87.027 27.3765C86.835 27.7545 86.412 28.209 85.755 28.7385C85.1055 29.2695 84.5115 29.5335 83.9745 29.5335C83.445 29.5335 83.0535 29.3715 82.8015 29.0475C82.5566 28.7431 82.4233 28.3642 82.4235 27.9735C82.4235 27.576 82.4895 27.228 82.623 26.9295C82.0877 27.6309 81.4465 28.2447 80.7225 28.749C80.0145 29.2455 79.4325 29.4945 78.9825 29.4945C78.5325 29.4945 78.165 29.3595 77.88 29.0865C77.514 28.749 77.3325 28.281 77.3325 27.6855C77.3325 27.081 77.4645 26.478 77.73 25.875C78.0015 25.2645 78.357 24.711 78.795 24.2145C79.2315 23.7105 79.7115 23.2545 80.235 22.842C81.336 21.981 82.35 21.549 83.28 21.549C83.637 21.549 83.928 21.609 84.153 21.729C84.378 21.849 84.522 21.9975 84.582 22.176C84.741 21.9375 84.873 21.7875 84.9795 21.729C85.1336 21.6533 85.3046 21.6187 85.476 21.6285V21.63ZM84.153 22.7325C83.0205 22.7325 81.8475 23.3625 80.634 24.6225C80.2035 25.0725 79.8045 25.6125 79.44 26.2425C79.083 26.8725 78.903 27.303 78.903 27.5355C78.903 27.768 78.9705 27.8835 79.1025 27.8835C79.2885 27.8835 79.8045 27.519 80.6535 26.79C81.5025 26.055 82.065 25.515 82.344 25.17C82.6485 24.7845 83.2515 23.973 84.153 22.7325Z" fill="#909090"/>
<path d="M86.1825 29.2455L85.695 29.226H85.515C85.4383 29.2 85.3675 29.1592 85.3065 29.106C85.2481 29.0615 85.1886 29.0185 85.128 28.977C85.089 28.9515 85.068 28.905 85.068 28.839C85.0785 28.7131 85.1052 28.5891 85.1475 28.47C86.4405 25.626 87.69 23.352 88.8975 21.6495C89.0295 21.4635 89.2425 21.324 89.5335 21.231C89.832 21.132 90.12 21.081 90.399 21.081C90.564 21.081 90.6465 21.2115 90.6465 21.471C90.6387 21.5741 90.6117 21.6748 90.567 21.768C90.5145 21.888 90.3825 22.086 90.1695 22.365C89.958 22.644 89.7045 22.962 89.4135 23.319C89.1225 23.6775 88.956 23.883 88.917 23.9355C89.8245 22.995 90.6435 22.296 91.3725 21.8385C92.1075 21.3735 92.6385 21.1425 92.9625 21.1425C93.2955 21.1425 93.5475 21.2385 93.72 21.4305C93.9 21.6165 93.9885 21.8175 93.9885 22.0365C93.9885 22.2495 93.972 22.428 93.939 22.5735C93.9068 22.7296 93.8533 22.8805 93.78 23.022L93.57 23.4195C93.5175 23.5245 93.4245 23.667 93.2925 23.847C93.0219 24.2013 92.7434 24.5494 92.457 24.891C92.643 24.705 92.901 24.4305 93.2325 24.066C93.5625 23.7 93.843 23.3955 94.068 23.151C94.299 22.905 94.5885 22.6305 94.932 22.326C95.277 22.014 95.5995 21.762 95.898 21.57C96.6135 21.12 97.338 20.8935 98.0745 20.8935C98.3265 20.8935 98.5395 20.973 98.712 21.132C98.7941 21.2039 98.8597 21.2928 98.9043 21.3925C98.9488 21.4922 98.9712 21.6003 98.97 21.7095C98.97 21.927 98.7 22.458 98.1645 23.2995C97.6246 24.1396 97.0876 24.9816 96.5535 25.8255C96.024 26.667 95.7585 27.198 95.7585 27.4155C95.7585 27.7215 95.814 27.903 95.9265 27.963C96.0548 28.0185 96.1956 28.0392 96.3345 28.023C96.4935 28.0095 96.7155 27.9075 97.0005 27.7155C97.293 27.522 97.551 27.324 97.776 27.1185C98.1405 26.787 98.4795 26.4645 98.7915 26.154C98.8499 26.0974 98.9277 26.0652 99.009 26.064C99.135 26.064 99.2115 26.16 99.2385 26.352C99.2655 26.544 99.2775 26.7435 99.2775 26.949C99.2871 27.0941 99.2666 27.2396 99.2175 27.3765C99.027 27.7485 98.6025 28.2015 97.9455 28.7385C97.29 29.2755 96.66 29.544 96.0555 29.544C96.0023 29.5457 95.9491 29.5427 95.8965 29.535C95.214 29.4675 94.7415 29.283 94.476 28.977C94.218 28.6677 94.0801 28.2757 94.0875 27.873C94.0875 27.45 94.23 26.9355 94.515 26.3325C94.7886 25.7605 95.1081 25.2117 95.4705 24.6915C95.8155 24.201 96.1305 23.7615 96.4155 23.37C96.7065 22.971 96.8505 22.755 96.8505 22.7235C96.8505 22.6905 96.825 22.674 96.7725 22.674C96.567 22.674 96.1095 23.004 95.4 23.667C94.2867 24.6961 93.2373 25.7921 92.2575 26.949C92.0265 27.228 91.476 27.933 90.6075 29.067C90.5085 29.199 90.3495 29.2665 90.1305 29.2665C89.9029 29.2637 89.6773 29.2232 89.463 29.1465C89.232 29.061 89.115 28.9515 89.115 28.818C89.115 28.752 89.643 27.8235 90.6975 26.034C91.7505 24.237 92.277 23.259 92.277 23.1015C92.277 22.9365 92.178 22.8525 91.98 22.8525C91.7865 22.8525 91.386 23.1435 90.7755 23.727C89.0985 25.332 87.7995 26.9265 86.8785 28.5105C86.8185 28.6035 86.703 28.749 86.5305 28.947C86.358 29.1465 86.2425 29.2455 86.1825 29.2455Z" fill="#909090"/>
<path d="M105.045 18.2685C105.045 18.6465 104.869 19.0275 104.518 19.4115C104.167 19.7895 103.798 19.9785 103.414 19.9785C103.036 19.9785 102.847 19.779 102.847 19.3815C102.847 18.984 103.012 18.606 103.345 18.249C103.683 17.883 104.055 17.7015 104.458 17.7015C104.615 17.6937 104.769 17.7475 104.886 17.8515C104.991 17.9505 105.045 18.09 105.045 18.2685ZM103.434 26.949C103.442 27.094 103.422 27.2393 103.374 27.3765C103.05 28.0395 102.534 28.5765 101.823 28.9875C101.115 29.3925 100.498 29.5935 99.9735 29.5935C99.45 29.5935 98.9985 29.418 98.622 29.067C98.244 28.716 98.055 28.3575 98.055 27.993C98.055 27.6285 98.238 27.099 98.6025 26.403C98.967 25.7055 99.3315 25.0635 99.696 24.4725C100.06 23.883 100.242 23.565 100.242 23.5185C100.242 23.466 100.173 23.3655 100.033 23.22C99.9015 23.0745 99.8355 22.968 99.8355 22.902C99.8355 22.8285 99.9705 22.647 100.242 22.3545C100.521 22.056 100.857 21.765 101.247 21.48C101.644 21.189 101.946 21.042 102.151 21.042C102.364 21.042 102.553 21.135 102.718 21.321C102.883 21.507 102.967 21.675 102.967 21.828C102.967 21.981 102.178 23.4165 100.6 26.133C100.581 26.1735 100.525 26.2635 100.431 26.403C100.358 26.5135 100.289 26.626 100.222 26.7405L100.054 27.0585C99.921 27.324 99.855 27.546 99.855 27.7245C99.855 27.9495 100.008 28.0635 100.312 28.0635C100.617 28.0635 100.932 27.96 101.257 27.7545C101.587 27.543 101.872 27.3105 102.112 27.0585C102.735 26.3895 103.09 26.0535 103.176 26.0535C103.348 26.0535 103.434 26.3535 103.434 26.949Z" fill="#909090"/>
</svg>
