<svg width="120" height="46" viewBox="0 0 120 46" fill="none" xmlns="http://www.w3.org/2000/svg">
<path d="M75.9585 30.375C75.8154 30.3752 75.6736 30.3472 75.5413 30.2925C75.409 30.2379 75.2888 30.1577 75.1875 30.0566C75.0862 29.9554 75.0059 29.8353 74.9511 29.7031C74.8962 29.5709 74.868 29.4291 74.868 29.286V8.964C74.8785 8.68198 74.9979 8.415 75.2011 8.21917C75.4043 8.02335 75.6756 7.91394 75.9578 7.91394C76.24 7.91394 76.5112 8.02335 76.7144 8.21917C76.9177 8.415 77.0371 8.68198 77.0475 8.964V29.286C77.0477 29.4292 77.0196 29.571 76.9649 29.7033C76.9101 29.8356 76.8298 29.9558 76.7285 30.057C76.6272 30.1582 76.5069 30.2384 76.3745 30.2929C76.2421 30.3475 76.1017 30.3754 75.9585 30.375ZM94.581 27.5235C94.7672 27.3031 94.8585 27.0181 94.8352 26.7306C94.8119 26.4431 94.6757 26.1765 94.4565 25.989C94.3476 25.8961 94.2214 25.8255 94.0852 25.7815C93.949 25.7374 93.8054 25.7207 93.6627 25.7322C93.52 25.7438 93.3809 25.7834 93.2536 25.8489C93.1262 25.9143 93.013 26.0042 92.9205 26.1135C91.7955 27.438 90.111 28.1985 88.3005 28.1985C86.8568 28.1973 85.4725 27.6233 84.4516 26.6024C83.4308 25.5815 82.8567 24.1972 82.8555 22.7535C82.8575 21.3103 83.4319 19.9268 84.4527 18.9066C85.4735 17.8863 86.8573 17.3127 88.3005 17.3115C89.465 17.3127 90.5927 17.7189 91.4904 18.4606C92.3881 19.2023 92.9998 20.2332 93.2205 21.3765H86.556C86.413 21.3759 86.2712 21.4036 86.1389 21.458C86.0066 21.5125 85.8864 21.5925 85.7852 21.6936C85.684 21.7947 85.6038 21.9148 85.5491 22.047C85.4945 22.1792 85.4666 22.321 85.467 22.464C85.4666 22.6071 85.4945 22.7489 85.5491 22.8812C85.6037 23.0135 85.6839 23.1337 85.7851 23.2349C85.8863 23.3361 86.0065 23.4163 86.1388 23.4709C86.2711 23.5255 86.4129 23.5534 86.556 23.553H94.3965C94.6851 23.5522 94.9616 23.4372 95.1657 23.2332C95.3698 23.0291 95.4847 22.7526 95.4855 22.464V22.3185C95.4855 18.357 92.262 15.1335 88.299 15.1335C86.2784 15.1355 84.3411 15.9388 82.912 17.3674C81.4829 18.7959 80.6788 20.7329 80.676 22.7535C80.676 26.9565 84.096 30.3735 88.299 30.3735C90.7515 30.3735 93.042 29.3355 94.581 27.5235ZM71.2395 29.286V22.3185C71.2395 18.3555 68.0145 15.1335 64.0515 15.1335C62.0309 15.1355 60.0936 15.9388 58.6645 17.3674C57.2354 18.7959 56.4313 20.7329 56.4285 22.7535C56.4285 26.9565 59.8485 30.3735 64.0515 30.3735C64.34 30.3735 64.6166 30.2589 64.8205 30.055C65.0245 29.851 65.139 29.5744 65.139 29.286C65.139 28.9976 65.0245 28.721 64.8205 28.517C64.6166 28.3131 64.34 28.1985 64.0515 28.1985C62.6078 28.1973 61.2235 27.6233 60.2026 26.6024C59.1818 25.5815 58.6077 24.1972 58.6065 22.7535C58.6085 21.3103 59.1829 19.9268 60.2037 18.9066C61.2245 17.8863 62.6083 17.3127 64.0515 17.3115C65.3794 17.3127 66.6525 17.8405 67.5918 18.7792C68.531 19.7178 69.0595 20.9907 69.0615 22.3185V29.286C69.0615 29.429 69.0897 29.5706 69.1444 29.7027C69.1992 29.8349 69.2794 29.9549 69.3805 30.056C69.4816 30.1572 69.6017 30.2374 69.7338 30.2921C69.8659 30.3468 70.0075 30.375 70.1505 30.375C70.2935 30.375 70.4351 30.3468 70.5673 30.2921C70.6994 30.2374 70.8194 30.1572 70.9206 30.056C71.0217 29.9549 71.1019 29.8349 71.1566 29.7027C71.2114 29.5706 71.2395 29.429 71.2395 29.286ZM38.277 26.0205C38.277 24.957 37.887 23.508 36.027 22.6365C34.911 22.1145 33.51 21.9 32.157 21.6915C28.983 21.2055 27.8565 20.799 27.8565 19.4865C27.8565 18.0585 29.8395 17.3115 31.7985 17.3115C33.033 17.3115 34.806 17.559 36.249 18.7455C36.4722 18.9289 36.7591 19.0161 37.0466 18.988C37.3341 18.9599 37.5986 18.8187 37.782 18.5955C37.9654 18.3723 38.0527 18.0854 38.0245 17.7979C37.9964 17.5104 37.8552 17.2459 37.632 17.0625C35.6925 15.468 33.3885 15.132 31.7985 15.132C27.594 15.132 25.6785 17.3895 25.6785 19.4865C25.6785 20.556 26.0715 22.0155 27.939 22.8915C29.061 23.4195 30.4665 23.6355 31.827 23.844C34.98 24.327 36.099 24.729 36.099 26.019C36.099 27.3225 34.5435 28.197 32.229 28.197C29.8605 28.197 28.0545 27.237 27.189 26.664C26.9485 26.52 26.6616 26.4743 26.3882 26.5364C26.1147 26.5986 25.8758 26.7638 25.7212 26.9977C25.5665 27.2316 25.5081 27.5162 25.558 27.7921C25.6079 28.068 25.7623 28.3141 25.989 28.479C27.8405 29.7029 30.0081 30.3617 32.2275 30.375C36.405 30.375 38.277 28.188 38.277 26.0205ZM54.066 27.1605C54.1451 27.0413 54.2 26.9077 54.2274 26.7674C54.2549 26.627 54.2544 26.4826 54.2261 26.3424C54.1977 26.2022 54.1421 26.069 54.0622 25.9503C53.9824 25.8316 53.88 25.7298 53.7608 25.6508C53.6416 25.5717 53.508 25.5168 53.3676 25.4894C53.2273 25.4619 53.0829 25.4624 52.9427 25.4907C52.8025 25.519 52.6693 25.5747 52.5506 25.6546C52.4319 25.7344 52.3301 25.8368 52.251 25.956C51.7945 26.6453 51.1743 27.2108 50.4458 27.6019C49.7173 27.9929 48.9033 28.1974 48.0765 28.197C46.633 28.1958 45.249 27.622 44.2282 26.6014C43.2073 25.5809 42.6331 24.197 42.6315 22.7535C42.6331 21.31 43.2073 19.9261 44.2282 18.9056C45.249 17.885 46.633 17.3112 48.0765 17.31C49.758 17.31 51.3195 18.1485 52.2525 19.551C52.3722 19.7296 52.5419 19.8688 52.7404 19.9512C52.9389 20.0336 53.1573 20.0555 53.3683 20.0141C53.5792 19.9728 53.7732 19.87 53.9259 19.7188C54.0786 19.5675 54.1832 19.3745 54.2265 19.164C54.2835 18.881 54.2258 18.587 54.066 18.3465C53.4113 17.3576 52.5217 16.5464 51.4767 15.9854C50.4317 15.4245 49.264 15.1312 48.078 15.132C46.0571 15.134 44.1196 15.9376 42.6905 17.3664C41.2614 18.7952 40.4574 20.7326 40.455 22.7535C40.455 26.9565 43.875 30.3735 48.0765 30.3735C50.49 30.3735 52.728 29.172 54.066 27.1605Z" fill="#909090"/>
</svg>
