<svg width="120" height="46" viewBox="0 0 120 46" fill="none" xmlns="http://www.w3.org/2000/svg">
<path d="M41.079 22.668C42.192 23.3085 42.747 24.276 42.747 25.569C42.747 26.6445 42.366 27.5265 41.6055 28.2165C40.8435 28.905 39.9075 29.25 38.7945 29.25H33.4095V16.5585H38.415C39.5025 16.5585 40.4145 16.896 41.1525 17.574C41.9025 18.2385 42.276 19.089 42.276 20.13C42.276 21.18 41.877 22.0275 41.079 22.668ZM38.415 18.897H35.913V21.6885H38.415C38.594 21.6935 38.772 21.6607 38.9374 21.5922C39.1029 21.5237 39.252 21.4211 39.375 21.291C39.5061 21.1608 39.6091 21.0051 39.6777 20.8335C39.7464 20.662 39.7791 20.4782 39.774 20.2935C39.7795 20.1103 39.7487 19.9278 39.6833 19.7566C39.6179 19.5854 39.5192 19.4288 39.393 19.296C39.2672 19.1644 39.1151 19.0608 38.9466 18.9921C38.7781 18.9233 38.5969 18.8909 38.415 18.897ZM38.7945 26.91C38.9889 26.9159 39.1825 26.882 39.3634 26.8103C39.5442 26.7386 39.7085 26.6306 39.846 26.493C40.125 26.2035 40.263 25.8405 40.263 25.4055C40.2687 25.2113 40.2347 25.018 40.163 24.8374C40.0913 24.6568 39.9834 24.4928 39.846 24.3555C39.7114 24.2131 39.5484 24.1006 39.3675 24.0254C39.1866 23.9502 38.9918 23.9139 38.796 23.919H35.913V26.91H38.7945ZM51.3105 20.184H53.649V29.25H51.309V28.1805C50.6085 29.0625 49.6245 29.5035 48.354 29.5035C47.1465 29.5035 46.107 29.0445 45.237 28.125C44.3775 27.195 43.9485 26.058 43.9485 24.717C43.9485 23.3745 44.379 22.245 45.2355 21.327C46.1055 20.397 47.1465 19.9305 48.3555 19.9305C49.6245 19.9305 50.6085 20.3715 51.3105 21.2535V20.184ZM46.995 26.5665C47.466 27.0375 48.0645 27.273 48.7905 27.273C49.515 27.273 50.1135 27.0375 50.5845 26.5665C51.0675 26.0835 51.3105 25.467 51.3105 24.717C51.3105 23.967 51.0675 23.3565 50.5845 22.887C50.1135 22.4025 49.515 22.161 48.7905 22.161C48.0645 22.161 47.466 22.401 46.995 22.8855C46.524 23.3565 46.2885 23.967 46.2885 24.7155C46.2885 25.4655 46.524 26.0835 46.995 26.5665ZM57.8565 22.7595C57.8565 22.9995 58.014 23.2005 58.3275 23.3565C58.6545 23.502 59.0475 23.6355 59.5065 23.7555C59.9655 23.865 60.4245 24.0105 60.885 24.1905C61.3475 24.3622 61.7503 24.6644 62.0445 25.0605C62.3715 25.4715 62.5335 25.986 62.5335 26.6025C62.5335 27.5325 62.184 28.2525 61.4835 28.7595C60.7935 29.2545 59.9295 29.5035 58.8885 29.5035C57.0285 29.5035 55.7595 28.7835 55.083 27.345L57.1125 26.205C57.3795 26.9895 57.9705 27.3825 58.89 27.3825C59.724 27.3825 60.141 27.1215 60.141 26.6025C60.141 26.361 59.9775 26.1675 59.652 26.022C59.2801 25.8439 58.8911 25.7042 58.491 25.605C58.0229 25.4815 57.5626 25.3302 57.1125 25.152C56.6547 24.9713 56.2497 24.6783 55.935 24.3C55.62 23.901 55.4625 23.406 55.4625 22.8135C55.4625 21.9195 55.7895 21.2175 56.442 20.7105C57.1065 20.19 57.9285 19.9305 58.908 19.9305C59.646 19.9305 60.3165 20.1 60.921 20.4375C61.5255 20.7645 62.001 21.2355 62.3535 21.852L60.3585 22.9395C60.069 22.3245 59.5845 22.0155 58.908 22.0155C58.64 22.0062 58.3751 22.0755 58.146 22.215C58.0551 22.273 57.9807 22.3534 57.93 22.4485C57.8793 22.5436 57.854 22.6502 57.8565 22.758V22.7595ZM65.8905 25.6785C66.2055 26.814 67.0575 27.3825 68.4465 27.3825C69.342 27.3825 70.0185 27.0795 70.4775 26.475L72.363 27.564C71.469 28.857 70.152 29.5035 68.4105 29.5035C66.9105 29.5035 65.7105 29.0505 64.803 28.143C63.8955 27.237 63.4425 26.094 63.4425 24.717C63.4425 23.352 63.8895 22.215 64.785 21.309C65.679 20.3895 66.8265 19.929 68.229 19.929C69.5595 19.929 70.653 20.3895 71.511 21.309C72.381 22.227 72.816 23.364 72.816 24.717C72.816 25.0185 72.786 25.3395 72.726 25.677L65.8905 25.6785ZM65.8545 23.8635H70.4775C70.344 23.2485 70.0665 22.7895 69.6435 22.4865C69.2342 22.1849 68.7373 22.0258 68.229 22.0335C67.6005 22.0335 67.0815 22.197 66.669 22.5225C66.2595 22.8375 65.988 23.283 65.8545 23.8635ZM84.303 20.184H86.787L83.904 29.25H81.6735L80.0055 23.7555L78.3375 29.25H76.107L73.224 20.184H75.708L77.25 25.749L78.9 20.184H81.111L82.761 25.7685L84.303 20.184ZM89.6685 25.6785C89.9835 26.814 90.8355 27.3825 92.226 27.3825C93.12 27.3825 93.7965 27.0795 94.2555 26.475L96.141 27.564C95.247 28.857 93.93 29.5035 92.1885 29.5035C90.69 29.5035 89.4885 29.0505 88.581 28.143C87.675 27.237 87.222 26.094 87.222 24.717C87.222 23.352 87.669 22.215 88.563 21.309C89.457 20.3895 90.606 19.929 92.0085 19.929C93.3375 19.929 94.431 20.3895 95.289 21.309C96.159 22.227 96.594 23.364 96.594 24.717C96.594 25.0185 96.564 25.3395 96.504 25.677H89.67L89.6685 25.6785ZM89.6325 23.8635H94.2555C94.1235 23.2485 93.8445 22.7895 93.4215 22.4865C93.0126 22.1852 92.5163 22.0261 92.0085 22.0335C91.3785 22.0335 90.8595 22.197 90.4485 22.5225C90.0375 22.8375 89.766 23.283 89.6325 23.8635ZM98.2275 29.2485V16.014H100.567V29.25L98.2275 29.2485ZM102.706 29.2485V16.014H105.046V29.25L102.706 29.2485Z" fill="#909090"/>
<path fill-rule="evenodd" clip-rule="evenodd" d="M22.557 16.68C21.6232 16.68 20.7275 17.0509 20.0671 17.7111C19.4066 18.3712 19.0354 19.2667 19.035 20.2005V21.756H18.567C17.6329 21.756 16.7371 22.1271 16.0766 22.7876C15.4161 23.4481 15.045 24.3439 15.045 25.278V29.298H21.84C22.4479 29.2984 23.047 29.1519 23.586 28.8708C24.1251 28.5897 24.5882 28.1824 24.9359 27.6837C25.2836 27.185 25.5056 26.6096 25.5829 26.0066C25.6602 25.4036 25.5906 24.7908 25.38 24.2205H25.83C26.8301 24.2205 27.7893 23.8232 28.4965 23.116C29.2037 22.4088 29.601 21.4497 29.601 20.4495C29.601 19.4494 29.2037 18.4902 28.4965 17.783C27.7893 17.0758 26.8301 16.6785 25.83 16.6785L22.557 16.68ZM25.38 24.2205C25.1127 23.4974 24.6287 22.8735 23.9961 22.4329C23.3634 21.9922 22.611 21.756 21.84 21.756H19.035V24.2205H25.38Z" fill="#909090"/>
</svg>
