<svg width="120" height="46" viewBox="0 0 120 46" fill="none" xmlns="http://www.w3.org/2000/svg">
<path d="M16.5795 21.627V16.6635H13.5V29.553H16.5V27.2325C16.806 28.908 17.8545 29.7465 19.644 29.7465C22.659 29.7465 23.337 29.022 23.337 25.428V24.027C23.337 20.418 22.677 19.7085 19.806 19.7085C17.871 19.7085 16.9335 20.1285 16.5795 21.627ZM16.596 26.154V23.655C16.677 22.785 17.241 22.365 18.3375 22.365C19.8225 22.365 20.0955 22.6875 20.0955 24.1215V25.362C20.0955 26.7645 19.821 27.087 18.339 27.087C17.2575 27.087 16.6935 26.7645 16.596 26.1525V26.154ZM24.369 26.766C24.369 29.376 24.9495 29.8425 28.11 29.7465C29.625 29.7315 30.7065 29.1345 31.125 27.846V29.553H34.1895V23.043C34.1895 20.2245 33.513 19.7085 29.916 19.7085H29.175C25.401 19.7085 24.6915 20.208 24.6915 22.8675V23.253H27.756C27.723 22.1415 27.9975 21.948 29.5125 21.948C30.8685 21.948 31.1265 22.1415 31.1265 23.253V23.8005L28.062 23.817C24.9495 23.817 24.369 24.285 24.369 26.766ZM27.594 26.7975C27.594 26.202 27.756 26.0895 28.5945 26.0895L31.1265 26.073V26.493C31.1265 27.249 30.6105 27.5385 29.2545 27.5715H29.094C27.8355 27.5715 27.594 27.4425 27.594 26.7975ZM35.2215 26.541C35.2215 29.2305 35.8995 29.7465 39.447 29.7465H40.1895C44.253 29.7465 44.9955 29.2965 44.9955 26.9745C44.9955 25.4925 44.6235 24.606 43.0905 24.1545C42.2535 23.9145 41.511 23.7195 39.9315 23.463C38.8815 23.3025 38.592 23.109 38.592 22.7055C38.592 22.11 38.9145 21.948 40.107 21.948C41.3505 21.948 41.688 22.173 41.688 22.9635V23.253H44.7525V22.9635C44.7525 20.208 44.076 19.7085 40.479 19.7085H39.738C36.078 19.7085 35.367 20.1435 35.367 22.6095C35.367 23.898 35.706 24.6225 37.029 25.1385C37.9965 25.509 39.4635 25.7355 40.029 25.848C41.4465 26.106 41.784 26.3625 41.784 26.7495C41.784 27.33 41.415 27.4905 40.029 27.4905C38.529 27.4905 38.124 27.2805 38.124 26.5395V26.3295H35.2215V26.541ZM45.93 24.735C45.93 28.9575 46.671 29.745 50.622 29.745H51.3645C55.2825 29.745 56.0085 29.2305 56.0085 26.4915H52.7835C52.7835 27.3135 52.509 27.4905 51.009 27.4905C49.446 27.4905 49.155 27.216 49.155 25.815V25.767H56.0895V24.252C56.0895 20.418 55.347 19.7085 51.3645 19.7085H50.622C46.671 19.7085 45.93 20.4825 45.93 24.735ZM49.155 23.4945V23.4465C49.155 22.1895 49.446 21.948 51.009 21.948C52.524 21.948 52.848 22.1895 52.8645 23.4945H49.155ZM57.444 29.553H60.5085V23.9625C60.5085 22.8345 61.0395 22.2705 62.1045 22.2705C63.33 22.2705 63.5715 22.512 63.5715 23.769V29.553H66.6195L66.6045 23.865C66.6345 22.8015 67.1685 22.2705 68.2005 22.2705C69.426 22.2705 69.636 22.512 69.636 23.769V29.553H72.699L72.684 23.3025C72.684 20.2725 72.135 19.7085 69.1845 19.7085C67.5555 19.7085 66.5715 20.4015 66.216 21.9315C66.0885 20.0955 65.556 19.7085 63.105 19.7085C61.6695 19.7085 60.846 20.289 60.5085 21.7395V19.902H57.444V29.553ZM73.893 24.735C73.893 28.9575 74.634 29.745 78.603 29.745H79.344C83.229 29.745 83.955 29.2305 83.955 26.4915H80.7465C80.7465 27.3135 80.472 27.4905 78.9885 27.4905C77.3925 27.4905 77.1015 27.216 77.1015 25.815V25.767H84.036V24.252C84.036 20.418 83.295 19.7085 79.344 19.7085H78.6C74.6325 19.7085 73.89 20.4825 73.89 24.735H73.893ZM77.103 23.4945V23.4465C77.103 22.1895 77.3925 21.948 78.9885 21.948C80.4885 21.948 80.811 22.1895 80.8275 23.4945H77.1H77.103ZM85.3755 29.553H88.4385V23.8005C88.455 22.77 89.019 22.2705 90.132 22.2705C91.551 22.2705 91.809 22.545 91.809 24.0255V29.553H94.8735L94.8585 23.3025C94.8585 20.2725 94.3245 19.7085 91.5195 19.7085C89.745 19.7085 88.8105 20.289 88.4385 21.852V19.902H85.3755V29.553ZM95.664 22.464H96.615V26.3145C96.615 29.037 97.245 29.553 100.485 29.553H102.582V26.814H100.808C99.8565 26.814 99.6795 26.6535 99.6795 25.848V22.464H102.437V19.902H99.6795V17.823H96.7755V19.902H95.664V22.464ZM103.743 29.553H106.5V26.814H103.743V29.553Z" fill="#909090"/>
</svg>
