<svg width="21" height="21" viewBox="0 0 21 21" fill="none" xmlns="http://www.w3.org/2000/svg">
<g clip-path="url(#clip0_1_482)">
<path fill-rule="evenodd" clip-rule="evenodd" d="M15.3157 5.73679C15.6057 5.92679 15.6857 6.31378 15.4967 6.60278L9.83065 15.2688C9.78113 15.3445 9.71576 15.4086 9.63905 15.4566C9.56234 15.5046 9.47613 15.5354 9.38636 15.5468C9.2966 15.5582 9.20543 15.55 9.11915 15.5227C9.03287 15.4954 8.95355 15.4497 8.88665 15.3888L5.22065 12.0568C5.1034 11.944 5.03473 11.79 5.02923 11.6274C5.02372 11.4649 5.08182 11.3065 5.19118 11.1861C5.30054 11.0657 5.45254 10.9927 5.61489 10.9825C5.77724 10.9724 5.93715 11.0259 6.06065 11.1318L9.18565 13.9718L14.4507 5.91979C14.4955 5.85103 14.5534 5.79179 14.6212 5.74543C14.6889 5.69908 14.7651 5.66652 14.8455 5.64962C14.9258 5.63272 15.0086 5.63181 15.0893 5.64694C15.17 5.66206 15.2469 5.69193 15.3157 5.73679Z" fill="#909090"/>
</g>
<defs>
<clipPath id="clip0_1_482">
<rect width="20" height="20" fill="white" transform="translate(0.140625 0.59375)"/>
</clipPath>
</defs>
</svg>
