<svg width="16" height="18" viewBox="0 0 16 18" fill="none" xmlns="http://www.w3.org/2000/svg">
<path d="M11.3337 14.7344V13.4011C11.3337 12.6938 11.0527 12.0155 10.5526 11.5154C10.0525 11.0154 9.37424 10.7344 8.66699 10.7344H3.33366C2.62641 10.7344 1.94814 11.0154 1.44804 11.5154C0.947944 12.0155 0.666992 12.6938 0.666992 13.4011V14.7344" stroke="#FF8B35" stroke-width="1.2" stroke-linecap="round" stroke-linejoin="round"/>
<path d="M5.99967 8.06771C7.47243 8.06771 8.66634 6.8738 8.66634 5.40104C8.66634 3.92828 7.47243 2.73438 5.99967 2.73438C4.52692 2.73438 3.33301 3.92828 3.33301 5.40104C3.33301 6.8738 4.52692 8.06771 5.99967 8.06771Z" stroke="#FF8B35" stroke-width="1.2" stroke-linecap="round" stroke-linejoin="round"/>
<path d="M15.333 14.7342V13.4008C15.3326 12.81 15.1359 12.236 14.7739 11.769C14.4119 11.3021 13.9051 10.9685 13.333 10.8208" stroke="#FF8B35" stroke-width="1.2" stroke-linecap="round" stroke-linejoin="round"/>
<path d="M10.667 2.8208C11.2406 2.96766 11.749 3.30126 12.1121 3.769C12.4752 4.23674 12.6722 4.81202 12.6722 5.40413C12.6722 5.99624 12.4752 6.57152 12.1121 7.03925C11.749 7.50699 11.2406 7.84059 10.667 7.98746" stroke="#FF8B35" stroke-width="1.2" stroke-linecap="round" stroke-linejoin="round"/>
</svg>
