<svg width="47" height="33" viewBox="0 0 47 33" fill="none" xmlns="http://www.w3.org/2000/svg">
<g clip-path="url(#clip0_1_888)">
<path fill-rule="evenodd" clip-rule="evenodd" d="M22.9991 5.97363C17.128 5.97363 12.3667 10.7343 12.3667 16.6073C12.3667 21.3047 15.4132 25.2905 19.6386 26.6972C20.1706 26.7944 20.3645 26.4662 20.3645 26.1842C20.3645 25.9314 20.3553 25.2631 20.3501 24.3759C17.3924 25.0183 16.7683 22.9503 16.7683 22.9503C16.2846 21.7218 15.5875 21.3948 15.5875 21.3948C14.622 20.7355 15.6606 20.7485 15.6606 20.7485C16.7279 20.8236 17.2893 21.8446 17.2893 21.8446C18.2377 23.4692 19.7783 22.9999 20.3841 22.7277C20.4807 22.041 20.7555 21.5722 21.059 21.3066C18.6979 21.0376 16.2155 20.1258 16.2155 16.0512C16.2155 14.8899 16.63 13.9414 17.3101 13.1979C17.2005 12.9289 16.8356 11.8479 17.4146 10.3838C17.4146 10.3838 18.3069 10.0978 20.3384 11.4732C21.1863 11.2376 22.0963 11.1201 23.0004 11.1155C23.9038 11.1201 24.8131 11.2376 25.6624 11.4732C27.6925 10.0978 28.5835 10.3838 28.5835 10.3838C29.1638 11.8479 28.7989 12.9289 28.69 13.1979C29.3714 13.9414 29.7826 14.8899 29.7826 16.0512C29.7826 20.1362 27.2962 21.0351 24.928 21.2981C25.3092 21.6265 25.6493 22.2753 25.6493 23.2675C25.6493 24.6886 25.6362 25.8355 25.6362 26.1842C25.6362 26.4687 25.8282 26.7997 26.3674 26.6959C30.5894 25.2866 33.6334 21.304 33.6334 16.6073C33.6334 10.7343 28.872 5.97363 22.9991 5.97363Z" fill="#303030"/>
</g>
<defs>
<clipPath id="clip0_1_888">
<rect width="22" height="22" fill="white" transform="translate(12 5.60742)"/>
</clipPath>
</defs>
</svg>
